<?xml version="1.0" encoding="UTF-8" standalone="no"?>
<!DOCTYPE svg PUBLIC "-//W3C//DTD SVG 1.1//EN" "http://www.w3.org/Graphics/SVG/1.1/DTD/svg11.dtd">
<svg width="100%" height="100%" viewBox="0 0 128 128" version="1.1" xmlns="http://www.w3.org/2000/svg" xmlns:xlink="http://www.w3.org/1999/xlink" xml:space="preserve" xmlns:serif="http://www.serif.com/" style="fill-rule:evenodd;clip-rule:evenodd;stroke-linejoin:round;stroke-miterlimit:2;">
    <g transform="matrix(1,0,0,1,0,-167.132)">
        <g id="default-user-image" transform="matrix(1,0,0,1,0,167.132)">
            <rect x="0" y="0" width="128" height="128" style="fill:none;"/>
            <g transform="matrix(1,0,0,1,0,-167.132)">
                <path d="M64,167.132C99.323,167.132 128,195.81 128,231.132C128,266.455 99.323,295.132 64,295.132C28.677,295.132 0,266.455 0,231.132C0,195.81 28.677,167.132 64,167.132ZM50.633,217.661L49.235,217.661C46.884,217.661 44.904,219.416 44.62,221.749L38.101,275.448C37.791,277.995 39.608,280.314 42.155,280.623C44.702,280.932 47.021,279.115 47.33,276.569L51.358,243.391L76.642,243.391L80.67,276.569C80.979,279.115 83.298,280.932 85.845,280.623C88.392,280.314 90.209,277.995 89.899,275.448L83.38,221.749C83.096,219.416 81.116,217.661 78.765,217.661L77.367,217.661C82.149,213.772 85.208,207.84 85.208,201.2C85.208,189.495 75.705,179.992 64,179.992C52.295,179.992 42.792,189.495 42.792,201.2C42.792,207.84 45.851,213.772 50.633,217.661ZM53.353,226.958L52.487,234.093L75.513,234.093L74.647,226.958L53.353,226.958ZM64,189.289C70.574,189.289 75.911,194.626 75.911,201.2C75.911,207.774 70.574,213.111 64,213.111C57.426,213.111 52.089,207.774 52.089,201.2C52.089,194.626 57.426,189.289 64,189.289Z" style="fill:white;"/>
            </g>
        </g>
    </g>
</svg>
