<?xml version="1.0" encoding="UTF-8" standalone="no"?>
<!DOCTYPE svg PUBLIC "-//W3C//DTD SVG 1.1//EN" "http://www.w3.org/Graphics/SVG/1.1/DTD/svg11.dtd">
<svg width="100%" height="100%" viewBox="0 0 128 128" version="1.1" xmlns="http://www.w3.org/2000/svg" xmlns:xlink="http://www.w3.org/1999/xlink" xml:space="preserve" xmlns:serif="http://www.serif.com/" style="fill-rule:evenodd;clip-rule:evenodd;stroke-linecap:round;stroke-linejoin:round;stroke-miterlimit:1.5;">
    <rect id="editar" x="0" y="0" width="128" height="128" style="fill:none;"/>
    <g id="editar1" serif:id="editar">
        <g transform="matrix(-0.707107,-0.707107,0.707107,-0.707107,61.056,158.665)">
            <path d="M83.033,107.595C85.016,107.595 86.623,109.202 86.623,111.184C86.623,112.095 86.623,113.117 86.623,114.177C86.623,119.583 82.24,123.967 76.833,123.967L52.879,123.967C47.473,123.967 43.09,119.583 43.09,114.177C43.09,113.117 43.09,112.095 43.09,111.184C43.09,109.202 44.697,107.595 46.679,107.595C54.867,107.595 74.846,107.595 83.033,107.595ZM82.92,101.01L46.793,101.01C45.821,101.01 44.892,100.616 44.215,99.919C43.539,99.221 43.175,98.279 43.205,97.308C43.556,86.069 44.605,52.397 44.966,40.825C45.047,38.236 45.829,35.718 47.228,33.538C47.771,32.692 48.385,31.736 49.032,30.728C53.874,23.183 57.619,14.988 60.151,6.388C60.572,4.961 60.998,3.514 61.413,2.104C61.863,0.577 63.264,-0.472 64.856,-0.472C66.448,-0.472 67.85,0.577 68.3,2.104C68.715,3.514 69.141,4.961 69.561,6.388C72.094,14.988 75.838,23.183 80.681,30.728C81.328,31.736 81.942,32.692 82.485,33.538C83.884,35.718 84.666,38.236 84.746,40.825C85.107,52.397 86.157,86.069 86.508,97.308C86.538,98.279 86.173,99.221 85.497,99.919C84.821,100.616 83.891,101.01 82.92,101.01ZM64.856,38.276C60.546,38.276 56.461,36.023 53.143,33.272C52.871,33.039 52.795,32.649 52.96,32.331C53.124,32.013 53.486,31.849 53.833,31.936C57.139,32.711 60.833,33.024 64.955,33.083C69.105,32.962 72.599,32.705 75.879,31.936C76.227,31.849 76.589,32.013 76.753,32.331C76.918,32.649 76.842,33.039 76.57,33.272C73.225,36.044 69.201,38.276 64.856,38.276ZM65.483,27.112C65.432,27.648 65.61,28.18 65.972,28.579C66.334,28.977 66.847,29.204 67.385,29.204C69.042,29.205 71.373,29.205 73.031,29.205C73.57,29.205 74.084,28.977 74.446,28.578C74.808,28.179 74.985,27.646 74.933,27.11C74.632,24.056 73.62,18.743 70.203,18.743C66.785,18.743 65.779,24.059 65.483,27.112ZM54.779,27.112C54.728,27.648 54.905,28.18 55.267,28.579C55.629,28.977 56.142,29.204 56.681,29.204C58.337,29.205 60.669,29.205 62.326,29.205C62.865,29.205 63.379,28.977 63.741,28.578C64.104,28.179 64.281,27.646 64.229,27.11C63.928,24.056 62.915,18.743 59.498,18.743C56.08,18.743 55.075,24.059 54.779,27.112ZM59.504,22.557C60.63,22.557 61.543,23.547 61.543,24.766C61.543,25.985 60.63,26.975 59.504,26.975C58.379,26.975 57.466,25.985 57.466,24.766C57.466,23.547 58.379,22.557 59.504,22.557ZM70.209,22.557C71.334,22.557 72.248,23.547 72.248,24.766C72.248,25.985 71.334,26.975 70.209,26.975C69.084,26.975 68.17,25.985 68.17,24.766C68.17,23.547 69.084,22.557 70.209,22.557Z" style="stroke:black;stroke-width:0.74px;"/>
        </g>
    </g>
</svg>
