<?xml version="1.0" encoding="UTF-8" standalone="no"?>
<!DOCTYPE svg PUBLIC "-//W3C//DTD SVG 1.1//EN" "http://www.w3.org/Graphics/SVG/1.1/DTD/svg11.dtd">
<svg width="100%" height="100%" viewBox="0 0 128 128" version="1.1" xmlns="http://www.w3.org/2000/svg" xmlns:xlink="http://www.w3.org/1999/xlink" xml:space="preserve" xmlns:serif="http://www.serif.com/" style="fill-rule:evenodd;clip-rule:evenodd;stroke-linejoin:round;stroke-miterlimit:2;">
    <g transform="matrix(1,0,0,1,-149.048,-167.132)">
        <g id="icon-coin" transform="matrix(1,0,0,1,149.048,167.132)">
            <rect x="0" y="0" width="128" height="128" style="fill:none;"/>
            <g transform="matrix(1,0,0,1,0,-167.132)">
                <circle cx="64" cy="231.132" r="64" style="fill:rgb(255,210,61);"/>
                <path d="M64,167.132C99.323,167.132 128,195.81 128,231.132C128,266.455 99.323,295.132 64,295.132C28.677,295.132 0,266.455 0,231.132C0,195.81 28.677,167.132 64,167.132ZM64,176.865C93.951,176.865 118.267,201.181 118.267,231.132C118.267,261.083 93.951,285.399 64,285.399C34.049,285.399 9.733,261.083 9.733,231.132C9.733,201.181 34.049,176.865 64,176.865Z" style="fill:rgb(255,165,59);"/>
            </g>
            <g transform="matrix(0.346355,-9.61329e-18,9.61329e-18,0.346355,-7.07099,-115.669)">
                <path d="M277.37,409.498L295.821,482.712L266.837,490.539C262.268,473.535 255.308,461.402 245.957,454.14C236.606,446.878 225.929,444.176 213.925,446.035C203.34,447.674 193.628,452.614 184.79,460.854C175.953,469.094 169.432,480.266 165.229,494.37C160.518,510.197 159.304,525.483 161.587,540.227C163.402,551.947 167.163,562.011 172.868,570.419C178.574,578.826 185.275,584.757 192.972,588.21C200.668,591.664 208.675,592.747 216.993,591.459C223.609,590.434 230.029,588.303 236.254,585.064C242.479,581.826 248.573,577.277 254.537,571.418C260.501,565.558 267.419,556.793 275.29,545.121L298.427,559.54C289.544,577.175 276.751,592.367 260.046,605.115C245.863,616.022 229.651,622.888 211.409,625.713C185.701,629.694 163.111,624.434 143.638,609.932C123.495,594.856 111.397,574.228 107.343,548.047C104.269,528.199 106.418,508.8 113.791,489.851C121.164,470.901 132.673,454.916 148.32,441.895C163.966,428.875 181.382,420.879 200.569,417.908C211.249,416.254 221.698,416.232 231.916,417.844C238.949,418.884 245.717,421.03 252.221,424.281L256.954,412.66L277.37,409.498Z" style="fill:rgb(164,96,52);fill-rule:nonzero;"/>
            </g>
        </g>
    </g>
</svg>
