<?xml version="1.0" encoding="UTF-8" standalone="no"?>
<!DOCTYPE svg PUBLIC "-//W3C//DTD SVG 1.1//EN" "http://www.w3.org/Graphics/SVG/1.1/DTD/svg11.dtd">
<svg width="100%" height="100%" viewBox="0 0 129 128" version="1.1" xmlns="http://www.w3.org/2000/svg" xmlns:xlink="http://www.w3.org/1999/xlink" xml:space="preserve" xmlns:serif="http://www.serif.com/" style="fill-rule:evenodd;clip-rule:evenodd;stroke-linejoin:round;stroke-miterlimit:2;">
    <g transform="matrix(1,0,0,1,-166,0)">
        <g id="enrere" transform="matrix(1,0,0,1,166.741,0)">
            <rect x="0" y="0" width="128" height="128" style="fill:none;"/>
            <g transform="matrix(0.953949,0,0,1.60235,-160.24,-36.2902)">
                <path d="M231.582,75.691C230.157,75.691 228.79,76.028 227.782,76.628C226.774,77.229 226.207,78.042 226.207,78.891L226.207,87.341C226.207,88.646 224.876,89.82 222.843,90.308C220.811,90.796 218.484,90.501 216.962,89.561C205.086,82.225 185.033,69.838 176.893,64.81C174.887,63.57 174.887,61.608 176.893,60.369C185.033,55.341 205.086,42.954 216.962,35.617C218.484,34.678 220.811,34.382 222.843,34.871C224.876,35.359 226.207,36.533 226.207,37.838L226.207,46.288C226.207,47.136 226.774,47.95 227.782,48.55C228.79,49.15 230.157,49.487 231.582,49.487L289.366,49.487C290.791,49.487 292.158,49.825 293.166,50.425C294.174,51.025 294.741,51.839 294.741,52.687C294.741,57.726 294.741,67.453 294.741,72.491C294.741,73.34 294.174,74.154 293.166,74.754C292.158,75.354 290.791,75.691 289.366,75.691C276.564,75.691 244.384,75.691 231.582,75.691Z" style="fill:white;"/>
            </g>
        </g>
    </g>
</svg>
