<?xml version="1.0" encoding="UTF-8" standalone="no"?>
<!DOCTYPE svg PUBLIC "-//W3C//DTD SVG 1.1//EN" "http://www.w3.org/Graphics/SVG/1.1/DTD/svg11.dtd">
<svg width="100%" height="100%" viewBox="0 0 128 128" version="1.1" xmlns="http://www.w3.org/2000/svg" xmlns:xlink="http://www.w3.org/1999/xlink" xml:space="preserve" xmlns:serif="http://www.serif.com/" style="fill-rule:evenodd;clip-rule:evenodd;stroke-linecap:round;stroke-linejoin:round;stroke-miterlimit:1.5;">
    <g transform="matrix(1,0,0,1,0,-167.132)">
        <g id="inventory" transform="matrix(1,0,0,1,0,167.132)">
            <rect x="0" y="0" width="128" height="128" style="fill:none;"/>
            <g transform="matrix(1,0,0,1,3.17741,-163.979)">
                <circle cx="36.254" cy="205.191" r="32.711" style="fill:rgb(255,127,57);"/>
                <clipPath id="_clip1">
                    <circle cx="36.254" cy="205.191" r="32.711"/>
                </clipPath>
                <g clip-path="url(#_clip1)">
                    <g transform="matrix(1,0,0,1,-0.497142,1.59027)">
                        <path d="M36.751,174.627L36.751,235.027" style="fill:none;stroke:rgb(88,55,48);stroke-width:8px;"/>
                    </g>
                    <g transform="matrix(6.12323e-17,-1,1,6.12323e-17,-168.573,237.558)">
                        <path d="M36.751,174.627C53.087,194.76 52.149,214.893 36.751,235.027" style="fill:none;stroke:rgb(88,55,48);stroke-width:8px;"/>
                    </g>
                    <g transform="matrix(1.13093,0,0,1.42503,-19.0152,-81.2121)">
                        <path d="M37.099,180.648C37.675,208.096 31.871,206.851 20.554,225.24" style="fill:none;stroke:rgb(88,55,48);stroke-width:6.22px;"/>
                    </g>
                    <g transform="matrix(-1.13093,0,0,1.42503,91.5233,-81.2121)">
                        <path d="M37.099,180.648C37.675,208.096 31.871,206.851 20.554,225.24" style="fill:none;stroke:rgb(88,55,48);stroke-width:6.22px;"/>
                    </g>
                </g>
                <circle cx="36.254" cy="205.191" r="32.711" style="fill:none;stroke:rgb(88,55,48);stroke-width:7.55px;"/>
            </g>
            <g transform="matrix(1,0,0,1,0.668076,3.15258)">
                <g transform="matrix(0.829168,0,0,0.746217,1.27214,-110.272)">
                    <path d="M100.498,181.538L79.265,181.538C50.88,213.289 37.677,245.041 40.153,276.792L61.385,276.792C64.04,245.041 77.933,213.289 100.498,181.538Z" style="fill:rgb(124,81,65);stroke:rgb(88,56,44);stroke-width:10.14px;"/>
                </g>
                <g transform="matrix(0.829168,0,0,-0.746217,1.27214,251.813)">
                    <path d="M100.498,181.538L79.265,181.538C50.88,213.289 37.677,245.041 40.153,276.792L61.385,276.792C64.04,245.041 77.933,213.289 100.498,181.538Z" style="fill:rgb(124,81,65);stroke:rgb(88,56,44);stroke-width:10.14px;"/>
                </g>
                <g transform="matrix(1.06901,0,0,1.01444,11.6636,-152.474)">
                    <rect x="18.6" y="192.77" width="81.309" height="58.686" style="fill:rgb(251,213,56);stroke:rgb(251,213,56);stroke-width:7.68px;"/>
                </g>
                <g transform="matrix(0.87508,0,0,0.906447,23.1548,-131.656)">
                    <rect x="18.6" y="192.77" width="81.309" height="58.686" style="fill:rgb(172,8,41);stroke:rgb(172,8,41);stroke-width:8.98px;"/>
                </g>
                <g transform="matrix(0.682598,0,0,0.795577,34.5603,-110.284)">
                    <rect x="18.6" y="192.77" width="81.309" height="58.686" style="fill:rgb(2,151,122);stroke:rgb(11,88,64);stroke-width:10.79px;"/>
                </g>
                <g transform="matrix(0.170952,0,0,0.406034,85.6781,-23.7614)">
                    <rect x="18.6" y="192.77" width="81.309" height="58.686" style="fill:rgb(255,236,196);stroke:rgb(255,191,61);stroke-width:25.68px;"/>
                </g>
                <g transform="matrix(0.829168,0,0,1.00948,21.0119,-163.07)">
                    <rect x="55.459" y="186.496" width="21.232" height="90.296" style="fill:rgb(124,81,65);stroke:rgb(88,56,44);stroke-width:8.66px;"/>
                </g>
                <g transform="matrix(1.23008,0,0,0.182117,-5.47865,24.2375)">
                    <rect x="55.459" y="186.496" width="21.232" height="90.296" style="fill:rgb(88,56,44);stroke:rgb(228,148,62);stroke-width:9.1px;"/>
                </g>
            </g>
        </g>
    </g>
</svg>
