<?xml version="1.0" encoding="UTF-8" standalone="no"?>
<!DOCTYPE svg PUBLIC "-//W3C//DTD SVG 1.1//EN" "http://www.w3.org/Graphics/SVG/1.1/DTD/svg11.dtd">
<svg width="100%" height="100%" viewBox="0 0 256 257" version="1.1" xmlns="http://www.w3.org/2000/svg" xmlns:xlink="http://www.w3.org/1999/xlink" xml:space="preserve" xmlns:serif="http://www.serif.com/" style="fill-rule:evenodd;clip-rule:evenodd;stroke-linejoin:round;stroke-miterlimit:2;">
    <g transform="matrix(1,0,0,1,-528,-2567)">
        <g id="icon-cercatrivia" transform="matrix(2,0,0,2,528,2567.86)">
            <rect x="0" y="0" width="128" height="128" style="fill:none;"/>
            <g transform="matrix(2.61888,-0.41375,0.41375,2.61888,-295.304,-938.457)">
                <path d="M62.992,384.799L63.279,387.869L62.06,388.004C61.982,387.289 61.777,386.756 61.445,386.404C61.113,386.053 60.699,385.877 60.203,385.877C59.765,385.877 59.342,386.015 58.934,386.293C58.526,386.57 58.193,386.98 57.935,387.523C57.646,388.133 57.502,388.742 57.502,389.351C57.502,389.836 57.59,390.265 57.768,390.64C57.946,391.015 58.179,391.297 58.468,391.484C58.757,391.672 59.074,391.765 59.418,391.765C59.691,391.765 59.963,391.72 60.235,391.628C60.506,391.536 60.781,391.39 61.058,391.191C61.336,390.992 61.67,390.681 62.06,390.26L62.904,390.986C62.435,391.642 61.824,392.176 61.07,392.586C60.429,392.937 59.732,393.113 58.978,393.113C57.916,393.113 57.037,392.76 56.341,392.053C55.623,391.318 55.263,390.41 55.263,389.328C55.263,388.508 55.471,387.738 55.887,387.019C56.303,386.301 56.868,385.727 57.581,385.3C58.294,384.872 59.046,384.658 59.839,384.658C60.281,384.658 60.703,384.722 61.105,384.851C61.382,384.937 61.642,385.066 61.884,385.238L62.148,384.799L62.992,384.799Z" style="fill-rule:nonzero;"/>
                <path d="M68.646,390.863L69.384,391.713C68.814,392.217 68.274,392.576 67.764,392.791C67.254,393.006 66.728,393.113 66.185,393.113C65.431,393.113 64.841,392.953 64.416,392.633C63.763,392.133 63.437,391.463 63.437,390.623C63.437,389.994 63.614,389.405 63.967,388.856C64.321,388.307 64.833,387.858 65.503,387.509C66.172,387.159 66.888,386.984 67.65,386.984C68.291,386.984 68.789,387.127 69.144,387.412C69.5,387.697 69.677,388.041 69.677,388.443C69.677,388.724 69.615,388.971 69.49,389.181C69.326,389.463 69.094,389.697 68.796,389.885C68.497,390.072 68.045,390.229 67.439,390.356C66.834,390.483 66.191,390.549 65.511,390.553L65.511,390.699C65.511,391.023 65.616,391.289 65.825,391.496C66.034,391.703 66.304,391.806 66.636,391.806C66.914,391.806 67.214,391.732 67.539,391.584C67.976,391.381 68.345,391.14 68.646,390.863ZM65.734,389.521C66.347,389.486 66.821,389.417 67.155,389.313C67.489,389.21 67.724,389.082 67.861,388.93C67.966,388.816 68.019,388.689 68.019,388.549C68.019,388.424 67.969,388.318 67.87,388.232C67.77,388.146 67.638,388.103 67.474,388.103C67.279,388.103 67.066,388.159 66.836,388.27C66.605,388.382 66.399,388.537 66.217,388.736C66.036,388.935 65.875,389.197 65.734,389.521Z" style="fill-rule:nonzero;"/>
                <path d="M73.484,386.984L73.184,388.303C73.407,387.967 73.622,387.71 73.831,387.532C74.04,387.354 74.263,387.219 74.501,387.125C74.739,387.031 74.972,386.984 75.198,386.984C75.537,386.984 75.806,387.075 76.003,387.257C76.2,387.438 76.298,387.67 76.298,387.951C76.298,388.248 76.211,388.494 76.035,388.689C75.859,388.885 75.643,388.982 75.385,388.982C75.284,388.982 75.188,388.969 75.098,388.941C75.048,388.926 74.915,388.855 74.7,388.73C74.556,388.648 74.431,388.607 74.325,388.607C74.247,388.607 74.169,388.625 74.091,388.66C73.97,388.719 73.836,388.825 73.687,388.979C73.539,389.134 73.379,389.367 73.207,389.68C73.078,389.91 72.937,390.272 72.783,390.766C72.629,391.261 72.501,391.728 72.399,392.17L72.206,392.972L70.363,392.972L71.34,388.625L70.433,388.625L70.698,387.494C71.332,387.482 72.081,387.312 72.943,386.984L73.484,386.984Z" style="fill-rule:nonzero;"/>
                <path d="M81.396,391.015L82.052,391.9C80.998,392.709 79.925,393.113 78.836,393.113C78.023,393.113 77.375,392.882 76.89,392.419C76.406,391.956 76.164,391.361 76.164,390.635C76.164,390.017 76.338,389.427 76.688,388.862C77.038,388.298 77.52,387.844 78.135,387.5C78.751,387.156 79.408,386.984 80.107,386.984C80.798,386.984 81.347,387.147 81.754,387.473C82.16,387.8 82.363,388.18 82.363,388.613C82.363,388.918 82.277,389.159 82.105,389.337C81.933,389.514 81.707,389.603 81.425,389.603C81.254,389.603 81.099,389.564 80.963,389.486C80.826,389.407 80.714,389.299 80.629,389.162C80.586,389.099 80.541,388.98 80.494,388.803C80.443,388.615 80.393,388.485 80.344,388.415C80.296,388.344 80.229,388.287 80.145,388.244C80.061,388.201 79.972,388.18 79.879,388.18C79.664,388.18 79.447,388.269 79.228,388.449C78.943,388.68 78.701,389.009 78.502,389.436C78.302,389.864 78.203,390.283 78.203,390.693C78.203,391.025 78.306,391.294 78.513,391.499C78.72,391.704 78.992,391.806 79.328,391.806C79.597,391.806 79.916,391.74 80.283,391.606C80.65,391.472 81.021,391.275 81.396,391.015Z" style="fill-rule:nonzero;"/>
                <path d="M88.263,387.631L88.646,387.125L90.045,387.125L89.068,391.051C89.004,391.32 88.972,391.492 88.972,391.566C88.972,391.637 88.997,391.694 89.047,391.739C89.097,391.784 89.16,391.806 89.237,391.806C89.318,391.806 89.424,391.773 89.557,391.707C89.689,391.64 89.83,391.537 89.98,391.396L90.642,392.17C90.288,392.506 89.942,392.747 89.606,392.893C89.269,393.04 88.925,393.113 88.575,393.113C88.33,393.113 88.107,393.069 87.906,392.981C87.706,392.893 87.536,392.771 87.398,392.615C87.26,392.459 87.163,392.281 87.109,392.082C86.937,392.293 86.731,392.48 86.491,392.644C86.251,392.808 86.018,392.928 85.794,393.002C85.569,393.076 85.32,393.113 85.046,393.113C84.625,393.113 84.254,393.015 83.936,392.82C83.618,392.625 83.368,392.35 83.186,391.997C83.004,391.643 82.914,391.221 82.914,390.728C82.914,389.713 83.278,388.835 84.006,388.095C84.734,387.354 85.569,386.984 86.51,386.984C86.852,386.984 87.155,387.032 87.419,387.127C87.683,387.222 87.964,387.39 88.263,387.631ZM87.743,388.602C87.528,388.438 87.346,388.326 87.198,388.268C87.049,388.209 86.897,388.18 86.741,388.18C86.229,388.18 85.802,388.455 85.46,389.007C85.118,389.559 84.947,390.155 84.947,390.797C84.947,391.067 85.015,391.287 85.152,391.457C85.289,391.628 85.453,391.713 85.644,391.713C85.859,391.713 86.07,391.636 86.278,391.484C86.563,391.269 86.837,390.914 87.101,390.421C87.365,389.928 87.579,389.322 87.743,388.602Z" style="fill-rule:nonzero;"/>
            </g>
            <g transform="matrix(2.61888,-0.41375,0.41375,2.61888,-279.466,-915.959)">
                <path d="M57.565,385.127L58.891,385.127L58.433,387.125L60.127,387.125L59.851,388.262L58.16,388.262L57.56,390.899C57.504,391.159 57.476,391.333 57.476,391.42C57.476,391.538 57.514,391.629 57.588,391.693C57.662,391.757 57.762,391.789 57.887,391.789C58.031,391.789 58.217,391.72 58.444,391.581C58.671,391.442 58.927,391.211 59.212,390.887L59.986,391.56C59.469,392.17 59.021,392.581 58.642,392.794C58.263,393.007 57.858,393.113 57.426,393.113C56.902,393.113 56.472,392.96 56.138,392.653C55.804,392.347 55.637,391.992 55.637,391.59C55.637,391.379 55.676,391.098 55.754,390.747L56.314,388.262L55.023,388.262L55.29,387.283C55.675,387.185 55.997,387.05 56.255,386.878C56.513,386.705 56.76,386.466 56.996,386.161C57.232,385.855 57.422,385.511 57.565,385.127Z" style="fill:rgb(49,0,253);fill-rule:nonzero;"/>
                <path d="M63.64,386.984L63.34,388.303C63.563,387.967 63.779,387.71 63.987,387.532C64.196,387.354 64.419,387.219 64.658,387.125C64.896,387.031 65.128,386.984 65.354,386.984C65.694,386.984 65.962,387.075 66.159,387.257C66.356,387.438 66.455,387.67 66.455,387.951C66.455,388.248 66.367,388.494 66.191,388.689C66.016,388.885 65.799,388.982 65.541,388.982C65.44,388.982 65.344,388.969 65.255,388.941C65.204,388.926 65.071,388.855 64.856,388.73C64.712,388.648 64.587,388.607 64.482,388.607C64.404,388.607 64.326,388.625 64.248,388.66C64.127,388.719 63.992,388.825 63.844,388.979C63.695,389.134 63.535,389.367 63.364,389.68C63.235,389.91 63.093,390.272 62.939,390.766C62.785,391.261 62.657,391.728 62.556,392.17L62.362,392.972L60.519,392.972L61.496,388.625L60.589,388.625L60.854,387.494C61.489,387.482 62.237,387.312 63.099,386.984L63.64,386.984Z" style="fill:rgb(49,0,253);fill-rule:nonzero;"/>
                <path d="M69.068,384.377C69.369,384.377 69.603,384.472 69.771,384.664C69.939,384.855 70.023,385.086 70.023,385.355C70.023,385.555 69.971,385.746 69.868,385.93C69.764,386.113 69.617,386.261 69.425,386.372C69.234,386.483 69.048,386.539 68.869,386.539C68.701,386.539 68.534,386.494 68.368,386.404C68.202,386.314 68.075,386.193 67.987,386.041C67.899,385.889 67.855,385.724 67.855,385.549C67.855,385.353 67.911,385.16 68.022,384.969C68.133,384.777 68.279,384.631 68.459,384.529C68.638,384.428 68.841,384.377 69.068,384.377ZM69.252,386.984L69.842,386.984L68.839,391.069C68.769,391.354 68.733,391.526 68.733,391.584C68.733,391.65 68.754,391.704 68.797,391.745C68.839,391.786 68.895,391.806 68.965,391.806C69.156,391.806 69.395,391.666 69.682,391.385L70.31,392.164C69.691,392.797 69.037,393.113 68.346,393.113C68.041,393.113 67.782,393.059 67.571,392.952C67.36,392.845 67.19,392.687 67.062,392.48C66.933,392.273 66.869,392.072 66.869,391.877C66.869,391.806 66.882,391.686 66.908,391.514C66.944,391.261 66.982,391.056 67.022,390.9L67.578,388.631L66.384,388.631L66.664,387.5C67.624,387.398 68.487,387.226 69.252,386.984Z" style="fill:rgb(49,0,253);fill-rule:nonzero;"/>
                <path d="M74.482,386.984L73.596,390.97C73.541,391.22 73.513,391.37 73.513,391.419C73.513,391.504 73.549,391.575 73.621,391.633C73.694,391.69 73.786,391.719 73.899,391.719C74.11,391.719 74.332,391.623 74.566,391.431C74.909,391.15 75.194,390.796 75.423,390.368C75.651,389.94 75.765,389.547 75.765,389.187C75.765,389.043 75.752,388.916 75.724,388.806C75.697,388.697 75.632,388.535 75.531,388.32C75.457,388.164 75.412,388.058 75.396,388.004C75.377,387.93 75.367,387.853 75.367,387.775C75.367,387.533 75.464,387.321 75.66,387.139C75.855,386.958 76.093,386.867 76.375,386.867C76.668,386.867 76.909,386.983 77.098,387.216C77.288,387.448 77.382,387.787 77.382,388.232C77.382,388.779 77.258,389.368 77.009,389.999C76.76,390.63 76.416,391.194 75.976,391.692C75.537,392.19 75.09,392.552 74.635,392.776C74.18,393.001 73.703,393.113 73.206,393.113C72.766,393.113 72.41,393 72.138,392.773C71.811,392.504 71.648,392.18 71.648,391.801C71.648,391.562 71.681,391.295 71.747,390.998L72.283,388.625L71.043,388.625L71.328,387.494C71.699,387.482 72.089,387.436 72.497,387.356C72.905,387.276 73.368,387.152 73.886,386.984L74.482,386.984Z" style="fill:rgb(49,0,253);fill-rule:nonzero;"/>
                <path d="M80.107,384.377C80.408,384.377 80.642,384.472 80.81,384.664C80.978,384.855 81.062,385.086 81.062,385.355C81.062,385.555 81.01,385.746 80.907,385.93C80.803,386.113 80.656,386.261 80.464,386.372C80.273,386.483 80.088,386.539 79.908,386.539C79.74,386.539 79.573,386.494 79.407,386.404C79.241,386.314 79.114,386.193 79.026,386.041C78.938,385.889 78.894,385.724 78.894,385.549C78.894,385.353 78.95,385.16 79.061,384.969C79.172,384.777 79.318,384.631 79.498,384.529C79.677,384.428 79.88,384.377 80.107,384.377ZM80.291,386.984L80.881,386.984L79.878,391.069C79.808,391.354 79.772,391.526 79.772,391.584C79.772,391.65 79.793,391.704 79.836,391.745C79.878,391.786 79.934,391.806 80.004,391.806C80.195,391.806 80.434,391.666 80.721,391.385L81.349,392.164C80.73,392.797 80.076,393.113 79.385,393.113C79.08,393.113 78.821,393.059 78.61,392.952C78.399,392.845 78.229,392.687 78.101,392.48C77.972,392.273 77.908,392.072 77.908,391.877C77.908,391.806 77.921,391.686 77.947,391.514C77.983,391.261 78.021,391.056 78.062,390.9L78.617,388.631L77.423,388.631L77.703,387.5C78.663,387.398 79.526,387.226 80.291,386.984Z" style="fill:rgb(49,0,253);fill-rule:nonzero;"/>
                <path d="M87.297,387.631L87.679,387.125L89.078,387.125L88.101,391.051C88.037,391.32 88.005,391.492 88.005,391.566C88.005,391.637 88.03,391.694 88.08,391.739C88.13,391.784 88.193,391.806 88.27,391.806C88.351,391.806 88.457,391.773 88.59,391.707C88.722,391.64 88.863,391.537 89.013,391.396L89.675,392.17C89.321,392.506 88.976,392.747 88.639,392.893C88.302,393.04 87.958,393.113 87.608,393.113C87.363,393.113 87.14,393.069 86.939,392.981C86.739,392.893 86.569,392.771 86.431,392.615C86.293,392.459 86.197,392.281 86.142,392.082C85.97,392.293 85.764,392.48 85.524,392.644C85.284,392.808 85.051,392.928 84.827,393.002C84.602,393.076 84.353,393.113 84.08,393.113C83.658,393.113 83.288,393.015 82.969,392.82C82.651,392.625 82.401,392.35 82.219,391.997C82.038,391.643 81.947,391.221 81.947,390.728C81.947,389.713 82.311,388.835 83.039,388.095C83.767,387.354 84.602,386.984 85.543,386.984C85.885,386.984 86.188,387.032 86.452,387.127C86.716,387.222 86.997,387.39 87.297,387.631ZM86.776,388.602C86.561,388.438 86.38,388.326 86.231,388.268C86.083,388.209 85.93,388.18 85.774,388.18C85.262,388.18 84.835,388.455 84.493,389.007C84.151,389.559 83.98,390.155 83.98,390.797C83.98,391.067 84.048,391.287 84.185,391.457C84.322,391.628 84.486,391.713 84.678,391.713C84.893,391.713 85.104,391.636 85.311,391.484C85.596,391.269 85.871,390.914 86.134,390.421C86.398,389.928 86.612,389.322 86.776,388.602Z" style="fill:rgb(49,0,253);fill-rule:nonzero;"/>
            </g>
        </g>
    </g>
</svg>
