<?xml version="1.0" encoding="UTF-8" standalone="no"?>
<!DOCTYPE svg PUBLIC "-//W3C//DTD SVG 1.1//EN" "http://www.w3.org/Graphics/SVG/1.1/DTD/svg11.dtd">
<svg width="100%" height="100%" viewBox="0 0 129 129" version="1.1" xmlns="http://www.w3.org/2000/svg" xmlns:xlink="http://www.w3.org/1999/xlink" xml:space="preserve" xmlns:serif="http://www.serif.com/" style="fill-rule:evenodd;clip-rule:evenodd;stroke-linejoin:round;stroke-miterlimit:2;">
    <g transform="matrix(1,0,0,1,-1259,-2695)">
        <g id="icon-cercampionat-min" transform="matrix(1,0,0,1,1259.13,2695.86)">
            <rect x="0" y="0" width="128" height="128" style="fill:none;"/>
            <g transform="matrix(6.54724,-1.03438,1.03438,6.54724,-747.807,-2428.06)">
                <path d="M62.992,384.799L63.279,387.869L62.06,388.004C61.982,387.289 61.777,386.756 61.445,386.404C61.113,386.053 60.699,385.877 60.203,385.877C59.765,385.877 59.342,386.015 58.934,386.293C58.526,386.57 58.193,386.98 57.935,387.523C57.646,388.133 57.502,388.742 57.502,389.351C57.502,389.836 57.59,390.265 57.768,390.64C57.946,391.015 58.179,391.297 58.468,391.484C58.757,391.672 59.074,391.765 59.418,391.765C59.691,391.765 59.963,391.72 60.235,391.628C60.506,391.536 60.781,391.39 61.058,391.191C61.336,390.992 61.67,390.681 62.06,390.26L62.904,390.986C62.435,391.642 61.824,392.176 61.07,392.586C60.429,392.937 59.732,393.113 58.978,393.113C57.916,393.113 57.037,392.76 56.341,392.053C55.623,391.318 55.263,390.41 55.263,389.328C55.263,388.508 55.471,387.738 55.887,387.019C56.303,386.301 56.868,385.727 57.581,385.3C58.294,384.872 59.046,384.658 59.839,384.658C60.281,384.658 60.703,384.722 61.105,384.851C61.382,384.937 61.642,385.066 61.884,385.238L62.148,384.799L62.992,384.799Z" style="fill-rule:nonzero;"/>
            </g>
            <g transform="matrix(0.956016,0,0,0.956016,-1206.07,-1421.13)">
                <circle cx="1350.7" cy="1565.39" r="27.568"/>
            </g>
            <g transform="matrix(6.10222,-0.964072,0.964072,6.10222,-646.606,-2247.92)">
                <path d="M60.273,391.015L60.929,391.9C59.875,392.709 58.802,393.113 57.713,393.113C56.9,393.113 56.252,392.882 55.767,392.419C55.283,391.956 55.041,391.361 55.041,390.635C55.041,390.017 55.215,389.427 55.565,388.862C55.915,388.298 56.397,387.844 57.012,387.5C57.628,387.156 58.285,386.984 58.984,386.984C59.675,386.984 60.224,387.147 60.63,387.473C61.037,387.8 61.24,388.18 61.24,388.613C61.24,388.918 61.154,389.159 60.982,389.337C60.81,389.514 60.584,389.603 60.302,389.603C60.13,389.603 59.976,389.564 59.839,389.486C59.703,389.407 59.591,389.299 59.505,389.162C59.463,389.099 59.418,388.98 59.371,388.803C59.32,388.615 59.27,388.485 59.221,388.415C59.172,388.344 59.106,388.287 59.022,388.244C58.938,388.201 58.849,388.18 58.755,388.18C58.541,388.18 58.324,388.269 58.105,388.449C57.82,388.68 57.578,389.009 57.379,389.436C57.179,389.864 57.08,390.283 57.08,390.693C57.08,391.025 57.183,391.294 57.39,391.499C57.597,391.704 57.869,391.806 58.205,391.806C58.474,391.806 58.793,391.74 59.16,391.606C59.527,391.472 59.898,391.275 60.273,391.015Z" style="fill:rgb(228,255,0);fill-rule:nonzero;"/>
            </g>
        </g>
    </g>
</svg>
