<?xml version="1.0" encoding="UTF-8" standalone="no"?>
<!DOCTYPE svg PUBLIC "-//W3C//DTD SVG 1.1//EN" "http://www.w3.org/Graphics/SVG/1.1/DTD/svg11.dtd">
<svg width="100%" height="100%" viewBox="0 0 129 129" version="1.1" xmlns="http://www.w3.org/2000/svg" xmlns:xlink="http://www.w3.org/1999/xlink" xml:space="preserve" xmlns:serif="http://www.serif.com/" style="fill-rule:evenodd;clip-rule:evenodd;stroke-linejoin:round;stroke-miterlimit:2;">
    <g transform="matrix(1,0,0,1,-2238,-3237)">
        <g id="icon-events" transform="matrix(1,0,0,1,2238.69,3237.04)">
            <rect x="0" y="0" width="128" height="128" style="fill:none;"/>
            <g transform="matrix(6.54724,-1.03438,1.03438,6.54724,-747.807,-2428.06)">
                <path d="M62.992,384.799L63.279,387.869L62.06,388.004C61.982,387.289 61.777,386.756 61.445,386.404C61.113,386.053 60.699,385.877 60.203,385.877C59.765,385.877 59.342,386.015 58.934,386.293C58.526,386.57 58.193,386.98 57.935,387.523C57.646,388.133 57.502,388.742 57.502,389.351C57.502,389.836 57.59,390.265 57.768,390.64C57.946,391.015 58.179,391.297 58.468,391.484C58.757,391.672 59.074,391.765 59.418,391.765C59.691,391.765 59.963,391.72 60.235,391.628C60.506,391.536 60.781,391.39 61.058,391.191C61.336,390.992 61.67,390.681 62.06,390.26L62.904,390.986C62.435,391.642 61.824,392.176 61.07,392.586C60.429,392.937 59.732,393.113 58.978,393.113C57.916,393.113 57.037,392.76 56.341,392.053C55.623,391.318 55.263,390.41 55.263,389.328C55.263,388.508 55.471,387.738 55.887,387.019C56.303,386.301 56.868,385.727 57.581,385.3C58.294,384.872 59.046,384.658 59.839,384.658C60.281,384.658 60.703,384.722 61.105,384.851C61.382,384.937 61.642,385.066 61.884,385.238L62.148,384.799L62.992,384.799Z" style="fill:white;fill-rule:nonzero;"/>
            </g>
            <g transform="matrix(1,0,0,1,-2238.69,-3237.04)">
                <path d="M2323.91,3286.1C2338.46,3286.1 2350.26,3297.91 2350.26,3312.45C2350.26,3327 2338.46,3338.81 2323.91,3338.81C2309.36,3338.81 2297.55,3327 2297.55,3312.45C2297.55,3297.91 2309.36,3286.1 2323.91,3286.1ZM2336.85,3317.08L2341.71,3321.85C2336.05,3327.8 2329.9,3331.3 2323.25,3332.35C2318.29,3333.13 2314.11,3332.35 2310.71,3329.99C2307.31,3327.63 2305.26,3324.23 2304.55,3319.8C2303.96,3316.03 2304.46,3312.26 2306.05,3308.48C2307.64,3304.7 2310.14,3301.46 2313.56,3298.77C2316.99,3296.08 2320.83,3294.4 2325.1,3293.72C2329.32,3293.06 2332.82,3293.52 2335.62,3295.12C2338.41,3296.72 2340.02,3298.84 2340.43,3301.49C2340.73,3303.35 2340.44,3304.9 2339.56,3306.15C2338.68,3307.4 2337.39,3308.16 2335.67,3308.43C2334.62,3308.6 2333.64,3308.51 2332.73,3308.16C2331.82,3307.82 2331.04,3307.26 2330.38,3306.51C2330.06,3306.17 2329.67,3305.48 2329.21,3304.45C2328.72,3303.35 2328.29,3302.61 2327.93,3302.22C2327.56,3301.84 2327.1,3301.56 2326.55,3301.38C2325.99,3301.19 2325.43,3301.15 2324.86,3301.24C2323.55,3301.45 2322.31,3302.2 2321.15,3303.51C2319.63,3305.19 2318.47,3307.43 2317.67,3310.24C2316.86,3313.04 2316.66,3315.69 2317.05,3318.19C2317.37,3320.22 2318.26,3321.76 2319.72,3322.81C2321.19,3323.86 2322.94,3324.22 2324.99,3323.9C2326.64,3323.64 2328.51,3322.93 2330.63,3321.76C2332.74,3320.59 2334.81,3319.03 2336.85,3317.08Z" style="fill:white;"/>
            </g>
        </g>
    </g>
</svg>
