<?xml version="1.0" encoding="UTF-8" standalone="no"?>
<!DOCTYPE svg PUBLIC "-//W3C//DTD SVG 1.1//EN" "http://www.w3.org/Graphics/SVG/1.1/DTD/svg11.dtd">
<svg width="100%" height="100%" viewBox="0 0 129 129" version="1.1" xmlns="http://www.w3.org/2000/svg" xmlns:xlink="http://www.w3.org/1999/xlink" xml:space="preserve" xmlns:serif="http://www.serif.com/" style="fill-rule:evenodd;clip-rule:evenodd;stroke-linejoin:round;stroke-miterlimit:2;">
    <g transform="matrix(1,0,0,1,-363,-2695)">
        <g id="icon-cercatrivia-min" transform="matrix(1,0,0,1,363.812,2695.86)">
            <rect x="0" y="0" width="128" height="128" style="fill:none;"/>
            <g transform="matrix(6.54724,-1.03438,1.03438,6.54724,-744.167,-2422.78)">
                <path d="M62.992,384.799L63.279,387.869L62.06,388.004C61.982,387.289 61.777,386.756 61.445,386.404C61.113,386.053 60.699,385.877 60.203,385.877C59.765,385.877 59.342,386.015 58.934,386.293C58.526,386.57 58.193,386.98 57.935,387.523C57.646,388.133 57.502,388.742 57.502,389.351C57.502,389.836 57.59,390.265 57.768,390.64C57.946,391.015 58.179,391.297 58.468,391.484C58.757,391.672 59.074,391.765 59.418,391.765C59.691,391.765 59.963,391.72 60.235,391.628C60.506,391.536 60.781,391.39 61.058,391.191C61.336,390.992 61.67,390.681 62.06,390.26L62.904,390.986C62.435,391.642 61.824,392.176 61.07,392.586C60.429,392.937 59.732,393.113 58.978,393.113C57.916,393.113 57.037,392.76 56.341,392.053C55.623,391.318 55.263,390.41 55.263,389.328C55.263,388.508 55.471,387.738 55.887,387.019C56.303,386.301 56.868,385.727 57.581,385.3C58.294,384.872 59.046,384.658 59.839,384.658C60.281,384.658 60.703,384.722 61.105,384.851C61.382,384.937 61.642,385.066 61.884,385.238L62.148,384.799L62.992,384.799Z" style="fill-rule:nonzero;"/>
            </g>
            <g transform="matrix(6.54724,-1.03438,1.03438,6.54724,-689.751,-2420.03)">
                <path d="M57.565,385.127L58.891,385.127L58.433,387.125L60.127,387.125L59.851,388.262L58.16,388.262L57.56,390.899C57.504,391.159 57.476,391.333 57.476,391.42C57.476,391.538 57.514,391.629 57.588,391.693C57.662,391.757 57.762,391.789 57.887,391.789C58.031,391.789 58.217,391.72 58.444,391.581C58.671,391.442 58.927,391.211 59.212,390.887L59.986,391.56C59.469,392.17 59.021,392.581 58.642,392.794C58.263,393.007 57.858,393.113 57.426,393.113C56.902,393.113 56.472,392.96 56.138,392.653C55.804,392.347 55.637,391.992 55.637,391.59C55.637,391.379 55.676,391.098 55.754,390.747L56.314,388.262L55.023,388.262L55.29,387.283C55.675,387.185 55.997,387.05 56.255,386.878C56.513,386.705 56.76,386.466 56.996,386.161C57.232,385.855 57.422,385.511 57.565,385.127Z" style="fill:rgb(49,0,253);fill-rule:nonzero;"/>
            </g>
        </g>
    </g>
</svg>
