<?xml version="1.0" encoding="UTF-8" standalone="no"?>
<!DOCTYPE svg PUBLIC "-//W3C//DTD SVG 1.1//EN" "http://www.w3.org/Graphics/SVG/1.1/DTD/svg11.dtd">
<svg width="100%" height="100%" viewBox="0 0 129 129" version="1.1" xmlns="http://www.w3.org/2000/svg" xmlns:xlink="http://www.w3.org/1999/xlink" xml:space="preserve" xmlns:serif="http://www.serif.com/" style="fill-rule:evenodd;clip-rule:evenodd;stroke-linejoin:round;stroke-miterlimit:2;">
    <g transform="matrix(1,0,0,1,-2095,-3237)">
        <g id="icon-colles" transform="matrix(1,0,0,1,2095.46,3237.04)">
            <rect x="0" y="0" width="128" height="128" style="fill:none;"/>
            <g transform="matrix(1.53509,0,0,1.53509,-3237.12,-4983.19)">
                <path d="M2128.17,3261.7C2126.37,3261.7 2124.91,3263.16 2124.91,3264.96L2124.91,3295.22C2124.91,3296.23 2125.38,3297.18 2126.19,3297.8L2143.09,3310.77C2144.26,3311.67 2145.89,3311.67 2147.06,3310.77L2163.96,3297.8C2164.76,3297.18 2165.23,3296.23 2165.23,3295.22L2165.23,3264.96C2165.23,3263.16 2163.77,3261.7 2161.98,3261.7L2128.17,3261.7ZM2131.43,3268.22L2158.72,3268.22C2158.72,3268.22 2158.72,3293.61 2158.72,3293.61C2158.72,3293.61 2145.07,3304.08 2145.07,3304.08C2145.07,3304.08 2131.43,3293.61 2131.43,3293.61L2131.43,3268.22Z" style="fill:white;"/>
            </g>
            <g transform="matrix(1.25348,0,0,1.25348,-2605.91,-4037.44)">
                <path d="M2156.01,3268.95L2157.99,3268.95C2157.99,3268.95 2157.99,3293.25 2157.99,3293.25C2157.99,3293.25 2145.07,3303.16 2145.07,3303.16C2145.07,3303.16 2137.94,3297.69 2137.94,3297.69C2136.2,3296.35 2133.69,3296.68 2132.35,3298.42C2131.01,3300.17 2131.34,3302.68 2133.08,3304.01L2142.64,3311.36C2144.08,3312.45 2146.07,3312.45 2147.5,3311.36L2164.41,3298.38C2165.39,3297.62 2165.96,3296.45 2165.96,3295.22L2165.96,3264.96C2165.96,3262.76 2164.18,3260.97 2161.98,3260.97L2156.01,3260.97C2153.8,3260.97 2152.02,3262.76 2152.02,3264.96C2152.02,3267.16 2153.8,3268.95 2156.01,3268.95Z" style="fill:white;"/>
            </g>
        </g>
    </g>
</svg>
