<?xml version="1.0" encoding="UTF-8" standalone="no"?>
<!DOCTYPE svg PUBLIC "-//W3C//DTD SVG 1.1//EN" "http://www.w3.org/Graphics/SVG/1.1/DTD/svg11.dtd">
<svg width="100%" height="100%" viewBox="0 0 129 129" version="1.1" xmlns="http://www.w3.org/2000/svg" xmlns:xlink="http://www.w3.org/1999/xlink" xml:space="preserve" xmlns:serif="http://www.serif.com/" style="fill-rule:evenodd;clip-rule:evenodd;stroke-linejoin:round;stroke-miterlimit:2;">
    <g transform="matrix(1,0,0,1,-1801,-2888)">
        <g id="icon-home" transform="matrix(1,0,0,1,1801.74,2888.24)">
            <rect x="0" y="0" width="128" height="128" style="fill:none;"/>
            <g transform="matrix(1.03365,0,0,1.03365,-1864.52,-2989.59)">
                <path d="M1856.33,2994.45C1856.33,2997.3 1854.02,2999.61 1851.16,2999.61C1845.87,2999.61 1838.42,2999.61 1838.42,2999.61C1835.59,2999.61 1833.3,2997.32 1833.3,2994.49C1833.3,2986.07 1833.3,2969.44 1833.3,2961.03C1833.3,2959.66 1832.76,2958.36 1831.8,2957.4C1830.84,2956.44 1829.53,2955.9 1828.17,2955.9C1825.5,2955.9 1822.09,2955.9 1818.72,2955.9C1816.58,2955.9 1814.67,2954.57 1813.92,2952.57C1813.17,2950.57 1813.74,2948.31 1815.35,2946.91C1829.31,2934.72 1853.52,2913.61 1862.37,2905.88C1864.3,2904.19 1867.18,2904.19 1869.11,2905.88C1869.11,2905.88 1874.55,2910.62 1877.52,2913.21C1877.86,2913.5 1878.33,2913.57 1878.74,2913.39C1879.14,2913.2 1879.4,2912.8 1879.4,2912.35C1879.4,2912.35 1879.4,2912.35 1879.4,2912.35C1879.4,2910.96 1880.53,2909.84 1881.92,2909.84C1884.63,2909.84 1889.04,2909.84 1892.59,2909.84C1894.09,2909.84 1895.52,2910.43 1896.58,2911.49C1897.64,2912.54 1898.23,2913.98 1898.23,2915.47L1898.23,2928.72C1898.23,2930.35 1898.93,2931.9 1900.16,2932.97C1904.79,2937.01 1916.14,2946.91 1916.14,2946.91C1917.75,2948.31 1918.32,2950.57 1917.57,2952.57C1916.82,2954.57 1914.9,2955.9 1912.77,2955.9L1903.32,2955.9C1901.96,2955.9 1900.65,2956.44 1899.69,2957.4C1898.73,2958.36 1898.19,2959.66 1898.19,2961.03C1898.19,2969.44 1898.19,2986.07 1898.19,2994.49C1898.19,2997.32 1895.89,2999.61 1893.06,2999.61C1893.06,2999.61 1885.61,2999.61 1880.33,2999.61C1877.47,2999.61 1875.16,2997.3 1875.16,2994.45C1875.16,2991.91 1875.16,2988.87 1875.16,2986.34C1875.16,2983.48 1872.84,2981.17 1869.99,2981.17C1867.35,2981.17 1864.14,2981.17 1861.5,2981.17C1858.64,2981.17 1856.33,2983.48 1856.33,2986.34C1856.33,2988.87 1856.33,2991.91 1856.33,2994.45ZM1882.39,2947.16L1881.4,2963.05C1881.34,2964.05 1881.33,2964.64 1881.36,2964.83C1881.41,2965.16 1881.59,2965.41 1881.9,2965.59C1882.22,2965.76 1882.59,2965.82 1883.03,2965.75C1883.84,2965.62 1884.63,2965.12 1885.42,2964.24C1886.57,2962.95 1887.45,2961.41 1888.07,2959.62C1888.69,2957.83 1888.89,2956.25 1888.67,2954.86C1888.59,2954.3 1888.46,2953.82 1888.29,2953.42C1888.11,2953.01 1887.77,2952.43 1887.24,2951.66C1886.86,2951.11 1886.63,2950.73 1886.53,2950.53C1886.41,2950.25 1886.33,2949.97 1886.28,2949.66C1886.13,2948.73 1886.38,2947.86 1887.02,2947.04C1887.66,2946.22 1888.53,2945.72 1889.61,2945.55C1890.74,2945.37 1891.74,2945.67 1892.61,2946.45C1893.48,2947.23 1894.05,2948.48 1894.32,2950.2C1894.66,2952.3 1894.54,2954.65 1893.96,2957.23C1893.39,2959.81 1892.4,2962.2 1891.01,2964.38C1889.62,2966.57 1888.12,2968.23 1886.5,2969.38C1884.89,2970.52 1883.12,2971.24 1881.2,2971.55C1879.51,2971.81 1878.07,2971.59 1876.88,2970.89C1875.46,2970.05 1874.63,2968.9 1874.4,2967.44C1874.26,2966.52 1874.22,2965.47 1874.29,2964.28L1874.92,2954.81L1870.14,2955.57L1870.55,2951.04C1871.97,2950.77 1873.44,2950.35 1874.97,2949.8C1876.49,2949.24 1878.2,2948.48 1880.1,2947.52L1882.39,2947.16ZM1865.79,2934.47L1868.76,2946.12L1864.15,2947.39C1863.41,2944.68 1862.3,2942.75 1860.81,2941.6C1859.31,2940.45 1857.61,2940.02 1855.7,2940.32C1854.02,2940.59 1852.47,2941.38 1851.07,2942.7C1849.66,2944.01 1848.63,2945.8 1847.97,2948.05C1847.22,2950.57 1847.04,2953.01 1847.41,2955.35C1847.7,2957.22 1848.31,2958.82 1849.22,2960.16C1850.13,2961.49 1851.2,2962.43 1852.43,2962.98C1853.66,2963.53 1854.93,2963.7 1856.26,2963.49C1857.31,2963.32 1858.34,2962.98 1859.33,2962.46C1860.32,2961.94 1861.28,2961.21 1862.23,2960.28C1863.18,2959.34 1864.28,2957.94 1865.52,2956.08L1869.22,2958.36C1867.81,2961.18 1865.78,2963.6 1863.12,2965.64C1860.87,2967.39 1858.29,2968.49 1855.39,2968.95C1851.29,2969.59 1847.69,2968.77 1844.58,2966.47C1841.37,2964.07 1839.43,2960.79 1838.77,2956.62C1838.27,2953.46 1838.61,2950.37 1839.77,2947.35C1840.93,2944.33 1842.76,2941.78 1845.25,2939.69C1847.73,2937.61 1850.5,2936.33 1853.56,2935.85C1855.26,2935.58 1856.92,2935.57 1858.55,2935.82C1859.67,2935.99 1860.75,2936.32 1861.79,2936.84L1862.54,2934.98L1865.79,2934.47Z" style="fill:white;"/>
            </g>
        </g>
    </g>
</svg>
