<?xml version="1.0" encoding="UTF-8" standalone="no"?>
<!DOCTYPE svg PUBLIC "-//W3C//DTD SVG 1.1//EN" "http://www.w3.org/Graphics/SVG/1.1/DTD/svg11.dtd">
<svg width="100%" height="100%" viewBox="0 0 129 129" version="1.1" xmlns="http://www.w3.org/2000/svg" xmlns:xlink="http://www.w3.org/1999/xlink" xml:space="preserve" xmlns:serif="http://www.serif.com/" style="fill-rule:evenodd;clip-rule:evenodd;stroke-linejoin:round;stroke-miterlimit:2;">
    <g transform="matrix(1,0,0,1,-809,-2695)">
        <g id="icon-geganquesta-min" transform="matrix(1,0,0,1,809.82,2695.86)">
            <rect x="0" y="0" width="128" height="128" style="fill:none;"/>
            <g transform="matrix(6.00973,-0.94946,0.94946,6.00973,-682.577,-2220.2)">
                <path d="M63.091,384.799L63.367,387.635L62.148,387.752C62.089,387.357 61.97,387.015 61.791,386.726C61.611,386.437 61.392,386.222 61.134,386.082C60.877,385.941 60.588,385.871 60.267,385.871C59.814,385.871 59.376,386.012 58.952,386.293C58.528,386.574 58.18,386.995 57.909,387.556C57.637,388.116 57.502,388.711 57.502,389.34C57.502,389.836 57.589,390.276 57.765,390.661C57.941,391.046 58.168,391.33 58.445,391.514C58.722,391.697 59.033,391.789 59.377,391.789C59.627,391.789 59.861,391.747 60.08,391.663C60.298,391.579 60.458,391.479 60.557,391.364C60.657,391.249 60.736,391.068 60.795,390.822L60.918,390.33C60.933,390.256 60.941,390.172 60.941,390.078C60.941,389.965 60.911,389.881 60.85,389.826C60.79,389.771 60.691,389.744 60.554,389.744L60.414,389.75L59.904,389.75L60.162,388.619L64.181,388.619L63.923,389.75L63.56,389.75C63.369,389.75 63.234,389.768 63.156,389.806C63.078,389.843 63.012,389.902 62.96,389.984C62.907,390.066 62.853,390.228 62.798,390.471L62.236,392.972L61.023,392.972L60.918,392.48C60.578,392.703 60.242,392.864 59.91,392.964C59.578,393.063 59.224,393.113 58.849,393.113C57.841,393.113 56.994,392.759 56.306,392.05C55.619,391.341 55.275,390.447 55.275,389.369C55.275,388.514 55.481,387.725 55.893,387.005C56.305,386.284 56.873,385.713 57.595,385.291C58.318,384.869 59.093,384.658 59.921,384.658C60.199,384.658 60.474,384.682 60.748,384.731C61.021,384.78 61.265,384.847 61.48,384.933C61.632,384.992 61.802,385.09 61.99,385.226L62.236,384.799L63.091,384.799Z" style="fill-rule:nonzero;"/>
            </g>
            <g transform="matrix(5.19501,-0.820746,0.820746,5.19501,-534.342,-1909.48)">
                <path d="M61.702,387.125L60.23,393.787C60.185,394.002 60.162,394.133 60.162,394.18C60.162,394.269 60.201,394.338 60.28,394.385C60.359,394.431 60.523,394.455 60.773,394.455L61.041,394.455L60.789,395.586L57.004,395.586L57.273,394.455L57.527,394.455C57.763,394.455 57.928,394.436 58.02,394.399C58.112,394.362 58.182,394.309 58.229,394.241C58.276,394.173 58.326,394.012 58.38,393.758L58.788,392.15C58.232,392.792 57.595,393.113 56.877,393.113C56.52,393.113 56.206,393.023 55.936,392.844C55.665,392.664 55.44,392.389 55.262,392.017C55.083,391.646 54.994,391.25 54.994,390.828C54.994,390.168 55.159,389.519 55.488,388.883C55.818,388.246 56.234,387.77 56.735,387.456C57.236,387.141 57.798,386.984 58.419,386.984C58.77,386.984 59.076,387.034 59.338,387.134C59.6,387.233 59.853,387.4 60.098,387.635L60.454,387.125L61.702,387.125ZM59.657,388.613C59.509,388.469 59.362,388.36 59.215,388.288C59.068,388.216 58.92,388.18 58.773,388.18C58.523,388.18 58.266,388.284 58.003,388.493C57.74,388.702 57.515,389.026 57.329,389.466C57.143,389.905 57.05,390.359 57.05,390.828C57.05,391.113 57.108,391.331 57.224,391.481C57.34,391.632 57.492,391.707 57.68,391.707C58.011,391.707 58.335,391.496 58.652,391.074C59.116,390.449 59.451,389.629 59.657,388.613Z" style="fill:rgb(236,75,115);fill-rule:nonzero;"/>
            </g>
        </g>
    </g>
</svg>
