<?xml version="1.0" encoding="UTF-8" standalone="no"?>
<!DOCTYPE svg PUBLIC "-//W3C//DTD SVG 1.1//EN" "http://www.w3.org/Graphics/SVG/1.1/DTD/svg11.dtd">
<svg width="100%" height="100%" viewBox="0 0 129 129" version="1.1" xmlns="http://www.w3.org/2000/svg" xmlns:xlink="http://www.w3.org/1999/xlink" xml:space="preserve" xmlns:serif="http://www.serif.com/" style="fill-rule:evenodd;clip-rule:evenodd;stroke-linejoin:round;stroke-miterlimit:2;">
    <g transform="matrix(1,0,0,1,-1949,-3237)">
        <g id="icon-store" transform="matrix(1,0,0,1,1949.27,3237.04)">
            <rect x="0" y="0" width="128" height="128" style="fill:none;"/>
            <g transform="matrix(1.28666,0,0,1.06561,-2490.16,-3453.53)">
                <path d="M1963.05,3282.88C1961.06,3282.88 1959.38,3284.71 1959.18,3287.11L1955.18,3335.39C1955.08,3336.71 1955.43,3338.03 1956.17,3339.01C1956.91,3339.99 1957.95,3340.55 1959.05,3340.55L2011.18,3340.55C2012.28,3340.55 2013.33,3339.99 2014.06,3339.01C2014.8,3338.03 2015.16,3336.71 2015.05,3335.39L2011.05,3287.11C2010.85,3284.71 2009.18,3282.88 2007.18,3282.88L1963.05,3282.88ZM1966.57,3292.27L2003.67,3292.27C2003.67,3292.27 2006.89,3331.17 2006.89,3331.17C2006.89,3331.17 1963.35,3331.17 1963.35,3331.17L1966.57,3292.27Z" style="fill:white;"/>
            </g>
            <g transform="matrix(0.881226,0,0,1.00014,-1685.34,-3238.89)">
                <path d="M1971.6,3284.65C1972.45,3280.6 1973.57,3276.9 1975.35,3273.93C1977.35,3270.57 1980.31,3268.33 1985.09,3268.24C1993.78,3268.4 1996.79,3275.41 1998.63,3284.6C1999.17,3287.32 2002.12,3289.13 2005.21,3288.65C2008.29,3288.17 2010.35,3285.58 2009.8,3282.86C2006.81,3267.94 1999.32,3258.43 1985.2,3258.24C1985.15,3258.24 1985.1,3258.24 1985.04,3258.24C1970.17,3258.41 1963.45,3268.63 1960.44,3282.81C1959.86,3285.52 1961.9,3288.14 1964.97,3288.64C1968.05,3289.15 1971.02,3287.36 1971.6,3284.65Z" style="fill:white;"/>
            </g>
        </g>
    </g>
</svg>
