<?xml version="1.0" encoding="UTF-8" standalone="no"?>
<!DOCTYPE svg PUBLIC "-//W3C//DTD SVG 1.1//EN" "http://www.w3.org/Graphics/SVG/1.1/DTD/svg11.dtd">
<svg width="100%" height="100%" viewBox="0 0 257 257" version="1.1" xmlns="http://www.w3.org/2000/svg" xmlns:xlink="http://www.w3.org/1999/xlink" xml:space="preserve" xmlns:serif="http://www.serif.com/" style="fill-rule:evenodd;clip-rule:evenodd;stroke-linejoin:round;stroke-miterlimit:2;">
    <g transform="matrix(1,0,0,1,-974,-2567)">
        <g id="icon-geganquesta" transform="matrix(2,0,0,2,974.008,2567.86)">
            <rect x="0" y="0" width="128" height="128" style="fill:none;"/>
            <g transform="matrix(2.61888,-0.41375,0.41375,2.61888,-294.352,-938.599)">
                <path d="M63.091,384.799L63.367,387.635L62.148,387.752C62.089,387.357 61.97,387.015 61.791,386.726C61.611,386.437 61.392,386.222 61.134,386.082C60.877,385.941 60.588,385.871 60.267,385.871C59.814,385.871 59.376,386.012 58.952,386.293C58.528,386.574 58.18,386.995 57.909,387.556C57.637,388.116 57.502,388.711 57.502,389.34C57.502,389.836 57.589,390.276 57.765,390.661C57.941,391.046 58.168,391.33 58.445,391.514C58.722,391.697 59.033,391.789 59.377,391.789C59.627,391.789 59.861,391.747 60.08,391.663C60.298,391.579 60.458,391.479 60.557,391.364C60.657,391.249 60.736,391.068 60.795,390.822L60.918,390.33C60.933,390.256 60.941,390.172 60.941,390.078C60.941,389.965 60.911,389.881 60.85,389.826C60.79,389.771 60.691,389.744 60.554,389.744L60.414,389.75L59.904,389.75L60.162,388.619L64.181,388.619L63.923,389.75L63.56,389.75C63.369,389.75 63.234,389.768 63.156,389.806C63.078,389.843 63.012,389.902 62.96,389.984C62.907,390.066 62.853,390.228 62.798,390.471L62.236,392.972L61.023,392.972L60.918,392.48C60.578,392.703 60.242,392.864 59.91,392.964C59.578,393.063 59.224,393.113 58.849,393.113C57.841,393.113 56.994,392.759 56.306,392.05C55.619,391.341 55.275,390.447 55.275,389.369C55.275,388.514 55.481,387.725 55.893,387.005C56.305,386.284 56.873,385.713 57.595,385.291C58.318,384.869 59.093,384.658 59.921,384.658C60.199,384.658 60.474,384.682 60.748,384.731C61.021,384.78 61.265,384.847 61.48,384.933C61.632,384.992 61.802,385.09 61.99,385.226L62.236,384.799L63.091,384.799Z" style="fill-rule:nonzero;"/>
                <path d="M69.361,390.863L70.099,391.713C69.529,392.217 68.989,392.576 68.479,392.791C67.969,393.006 67.443,393.113 66.9,393.113C66.146,393.113 65.556,392.953 65.13,392.633C64.478,392.133 64.152,391.463 64.152,390.623C64.152,389.994 64.329,389.405 64.682,388.856C65.036,388.307 65.547,387.858 66.217,387.509C66.887,387.159 67.603,386.984 68.365,386.984C69.005,386.984 69.504,387.127 69.859,387.412C70.214,387.697 70.392,388.041 70.392,388.443C70.392,388.724 70.33,388.971 70.205,389.181C70.041,389.463 69.809,389.697 69.51,389.885C69.212,390.072 68.759,390.229 68.154,390.356C67.548,390.483 66.906,390.549 66.226,390.553L66.226,390.699C66.226,391.023 66.331,391.289 66.54,391.496C66.749,391.703 67.019,391.806 67.351,391.806C67.629,391.806 67.929,391.732 68.254,391.584C68.691,391.381 69.06,391.14 69.361,390.863ZM66.449,389.521C67.062,389.486 67.536,389.417 67.87,389.313C68.204,389.21 68.439,389.082 68.576,388.93C68.681,388.816 68.734,388.689 68.734,388.549C68.734,388.424 68.684,388.318 68.585,388.232C68.485,388.146 68.353,388.103 68.189,388.103C67.994,388.103 67.781,388.159 67.55,388.27C67.32,388.382 67.114,388.537 66.932,388.736C66.751,388.935 66.589,389.197 66.449,389.521Z" style="fill-rule:nonzero;"/>
                <path d="M76.323,387.125L77.666,387.125L76.671,392.086C76.578,392.553 76.502,392.887 76.444,393.088C76.324,393.495 76.167,393.841 75.973,394.125C75.778,394.41 75.516,394.67 75.186,394.907C74.856,395.143 74.47,395.326 74.03,395.456C73.589,395.585 73.11,395.65 72.594,395.65C72.069,395.65 71.627,395.586 71.268,395.457C70.909,395.328 70.651,395.165 70.493,394.968C70.336,394.77 70.257,394.558 70.257,394.332C70.257,394.094 70.341,393.893 70.509,393.731C70.676,393.569 70.883,393.488 71.129,393.488C71.279,393.488 71.413,393.52 71.531,393.585C71.648,393.649 71.789,393.783 71.955,393.986C72.109,394.178 72.255,394.307 72.394,394.376C72.532,394.444 72.694,394.478 72.879,394.478C73.214,394.478 73.535,394.364 73.843,394.136C74.151,393.907 74.399,393.59 74.588,393.183C74.711,392.922 74.805,392.592 74.871,392.193C74.66,392.428 74.462,392.604 74.277,392.723C74.093,392.843 73.883,392.937 73.646,393.008C73.41,393.078 73.171,393.113 72.929,393.113C72.338,393.113 71.842,392.899 71.443,392.472C71.043,392.044 70.843,391.504 70.843,390.851C70.843,390.16 71.003,389.51 71.323,388.9C71.642,388.291 72.065,387.819 72.589,387.485C73.114,387.151 73.677,386.984 74.279,386.984C74.602,386.984 74.889,387.032 75.139,387.128C75.389,387.223 75.663,387.396 75.96,387.646L76.323,387.125ZM75.526,388.626C75.375,388.483 75.224,388.376 75.071,388.304C74.918,388.233 74.765,388.197 74.61,388.197C74.353,388.197 74.097,388.296 73.843,388.493C73.59,388.69 73.369,389.007 73.181,389.442C72.994,389.878 72.9,390.326 72.9,390.787C72.9,391.096 72.96,391.33 73.079,391.49C73.199,391.65 73.358,391.73 73.557,391.73C73.873,391.73 74.191,391.526 74.511,391.118C74.96,390.544 75.278,389.814 75.465,388.926L75.526,388.626Z" style="fill-rule:nonzero;"/>
                <path d="M83.699,387.631L84.082,387.125L85.481,387.125L84.503,391.051C84.439,391.32 84.408,391.492 84.408,391.566C84.408,391.637 84.433,391.694 84.482,391.739C84.532,391.784 84.596,391.806 84.672,391.806C84.753,391.806 84.86,391.773 84.992,391.707C85.125,391.64 85.266,391.537 85.415,391.396L86.078,392.17C85.723,392.506 85.378,392.747 85.041,392.893C84.704,393.04 84.361,393.113 84.01,393.113C83.765,393.113 83.542,393.069 83.342,392.981C83.141,392.893 82.972,392.771 82.834,392.615C82.695,392.459 82.599,392.281 82.545,392.082C82.373,392.293 82.167,392.48 81.926,392.644C81.686,392.808 81.454,392.928 81.229,393.002C81.004,393.076 80.755,393.113 80.482,393.113C80.06,393.113 79.69,393.015 79.372,392.82C79.053,392.625 78.803,392.35 78.622,391.997C78.44,391.643 78.349,391.221 78.349,390.728C78.349,389.713 78.713,388.835 79.442,388.095C80.17,387.354 81.004,386.984 81.945,386.984C82.288,386.984 82.591,387.032 82.855,387.127C83.118,387.222 83.4,387.39 83.699,387.631ZM83.179,388.602C82.964,388.438 82.782,388.326 82.633,388.268C82.485,388.209 82.332,388.18 82.176,388.18C81.664,388.18 81.237,388.455 80.895,389.007C80.553,389.559 80.382,390.155 80.382,390.797C80.382,391.067 80.451,391.287 80.588,391.457C80.724,391.628 80.888,391.713 81.08,391.713C81.295,391.713 81.506,391.636 81.713,391.484C81.998,391.269 82.273,390.914 82.537,390.421C82.8,389.928 83.014,389.322 83.179,388.602Z" style="fill-rule:nonzero;"/>
                <path d="M86.705,392.972L87.684,388.613L86.775,388.613L87.02,387.494C87.743,387.455 88.492,387.285 89.265,386.984L89.814,386.984L89.556,388.118C89.81,387.825 90.046,387.602 90.265,387.449C90.484,387.295 90.712,387.179 90.95,387.101C91.189,387.023 91.431,386.984 91.677,386.984C92.141,386.984 92.52,387.128 92.813,387.415C93.106,387.702 93.253,388.05 93.253,388.457C93.253,388.563 93.247,388.665 93.235,388.763C93.231,388.81 93.202,388.948 93.148,389.179L92.734,391.043C92.672,391.324 92.641,391.492 92.641,391.546C92.641,391.609 92.663,391.659 92.706,391.697C92.75,391.735 92.81,391.754 92.886,391.754C93.101,391.754 93.337,391.615 93.595,391.338L94.216,392.105C93.836,392.469 93.493,392.721 93.186,392.861C92.88,393.002 92.563,393.072 92.235,393.072C91.772,393.072 91.414,392.94 91.16,392.677C90.906,392.413 90.779,392.127 90.779,391.818C90.779,391.639 90.824,391.357 90.913,390.974L91.313,389.181C91.355,388.99 91.377,388.849 91.377,388.76C91.377,388.654 91.341,388.568 91.268,388.502C91.195,388.435 91.094,388.402 90.965,388.402C90.812,388.402 90.677,388.435 90.559,388.502C90.344,388.627 90.113,388.854 89.868,389.184C89.623,389.514 89.421,389.884 89.263,390.292C89.104,390.7 88.932,391.305 88.748,392.105L88.548,392.972L86.705,392.972Z" style="fill-rule:nonzero;"/>
            </g>
            <g transform="matrix(2.2772,-0.359769,0.359769,2.2772,-243.051,-786.399)">
                <path d="M61.702,387.125L60.23,393.787C60.185,394.002 60.162,394.133 60.162,394.18C60.162,394.269 60.201,394.338 60.28,394.385C60.359,394.431 60.523,394.455 60.773,394.455L61.041,394.455L60.789,395.586L57.004,395.586L57.273,394.455L57.527,394.455C57.763,394.455 57.928,394.436 58.02,394.399C58.112,394.362 58.182,394.309 58.229,394.241C58.276,394.173 58.326,394.012 58.38,393.758L58.788,392.15C58.232,392.792 57.595,393.113 56.877,393.113C56.52,393.113 56.206,393.023 55.936,392.844C55.665,392.664 55.44,392.389 55.262,392.017C55.083,391.646 54.994,391.25 54.994,390.828C54.994,390.168 55.159,389.519 55.488,388.883C55.818,388.246 56.234,387.77 56.735,387.456C57.236,387.141 57.798,386.984 58.419,386.984C58.77,386.984 59.076,387.034 59.338,387.134C59.6,387.233 59.853,387.4 60.098,387.635L60.454,387.125L61.702,387.125ZM59.657,388.613C59.509,388.469 59.362,388.36 59.215,388.288C59.068,388.216 58.92,388.18 58.773,388.18C58.523,388.18 58.266,388.284 58.003,388.493C57.74,388.702 57.515,389.026 57.329,389.466C57.143,389.905 57.05,390.359 57.05,390.828C57.05,391.113 57.108,391.331 57.224,391.481C57.34,391.632 57.492,391.707 57.68,391.707C58.011,391.707 58.335,391.496 58.652,391.074C59.116,390.449 59.451,389.629 59.657,388.613Z" style="fill:rgb(236,75,115);fill-rule:nonzero;"/>
                <path d="M69.592,387.125L68.523,391.191C68.477,391.371 68.454,391.486 68.454,391.537C68.454,391.615 68.477,391.68 68.523,391.73C68.568,391.781 68.626,391.806 68.695,391.806C68.772,391.806 68.861,391.777 68.963,391.719C69.134,391.625 69.282,391.515 69.406,391.39L70.035,392.158C69.377,392.795 68.7,393.113 68.004,393.113C67.597,393.113 67.268,392.998 67.017,392.767C66.812,392.58 66.66,392.305 66.561,391.941C66.325,392.269 66.023,392.547 65.657,392.773C65.29,393 64.882,393.113 64.432,393.113C63.974,393.113 63.609,392.979 63.338,392.712C63.067,392.444 62.932,392.103 62.932,391.689C62.932,391.447 62.959,391.232 63.015,391.045C63.03,390.986 63.043,390.93 63.054,390.875L63.54,388.631L62.29,388.631L62.567,387.5C62.975,387.488 63.406,387.436 63.859,387.345C64.312,387.253 64.73,387.133 65.112,386.984L65.724,386.984L64.874,390.988C64.829,391.195 64.806,391.329 64.806,391.392C64.806,391.488 64.844,391.566 64.92,391.627C64.997,391.688 65.095,391.719 65.215,391.719C65.379,391.719 65.553,391.658 65.737,391.537C66.006,391.358 66.251,391.096 66.473,390.751C66.695,390.407 66.897,389.98 67.077,389.472C67.257,388.963 67.359,388.627 67.383,388.464C67.391,388.401 67.403,388.335 67.419,388.265L67.733,387.125L69.592,387.125Z" style="fill:rgb(236,75,115);fill-rule:nonzero;"/>
                <path d="M75.847,390.863L76.586,391.713C76.015,392.217 75.475,392.576 74.965,392.791C74.456,393.006 73.929,393.113 73.386,393.113C72.632,393.113 72.043,392.953 71.617,392.633C70.964,392.133 70.638,391.463 70.638,390.623C70.638,389.994 70.815,389.405 71.169,388.856C71.522,388.307 72.034,387.858 72.704,387.509C73.374,387.159 74.089,386.984 74.851,386.984C75.492,386.984 75.99,387.127 76.345,387.412C76.701,387.697 76.879,388.041 76.879,388.443C76.879,388.724 76.816,388.971 76.691,389.181C76.527,389.463 76.296,389.697 75.997,389.885C75.698,390.072 75.246,390.229 74.64,390.356C74.035,390.483 73.392,390.549 72.713,390.553L72.713,390.699C72.713,391.023 72.817,391.289 73.026,391.496C73.235,391.703 73.505,391.806 73.838,391.806C74.115,391.806 74.416,391.732 74.74,391.584C75.177,391.381 75.546,391.14 75.847,390.863ZM72.935,389.521C73.548,389.486 74.022,389.417 74.356,389.313C74.69,389.21 74.925,389.082 75.062,388.93C75.168,388.816 75.22,388.689 75.22,388.549C75.22,388.424 75.171,388.318 75.071,388.232C74.971,388.146 74.839,388.103 74.675,388.103C74.48,388.103 74.267,388.159 74.037,388.27C73.806,388.382 73.6,388.537 73.419,388.736C73.237,388.935 73.076,389.197 72.935,389.521Z" style="fill:rgb(236,75,115);fill-rule:nonzero;"/>
                <path d="M80.939,386.984C81.451,386.984 81.912,387.056 82.322,387.201C82.732,387.346 83.02,387.515 83.186,387.711C83.352,387.906 83.435,388.103 83.435,388.303C83.435,388.521 83.366,388.702 83.228,388.845C83.089,388.987 82.909,389.058 82.686,389.058C82.581,389.058 82.48,389.045 82.382,389.017C82.285,388.99 82.193,388.947 82.107,388.889C82.045,388.853 81.936,388.76 81.78,388.607C81.62,388.455 81.509,388.359 81.446,388.32C81.345,388.262 81.229,388.216 81.098,388.182C80.968,388.149 80.824,388.133 80.668,388.133C80.399,388.133 80.207,388.175 80.092,388.259C79.977,388.343 79.92,388.447 79.92,388.572C79.92,388.674 79.951,388.756 80.013,388.818C80.103,388.908 80.243,388.984 80.434,389.047C81.21,389.305 81.762,389.514 82.089,389.677C82.417,389.839 82.663,390.033 82.829,390.26C82.995,390.486 83.078,390.756 83.078,391.068C83.078,391.424 82.964,391.76 82.738,392.076C82.511,392.392 82.183,392.644 81.754,392.832C81.324,393.019 80.783,393.113 80.13,393.113C79.181,393.113 78.421,392.935 77.851,392.58C77.418,392.306 77.201,391.988 77.201,391.625C77.201,391.41 77.276,391.227 77.426,391.077C77.577,390.927 77.759,390.851 77.974,390.851C78.064,390.851 78.155,390.867 78.247,390.898C78.338,390.93 78.435,390.984 78.537,391.062C78.607,391.113 78.714,391.221 78.859,391.385C78.976,391.517 79.068,391.607 79.134,391.654C79.318,391.787 79.489,391.879 79.647,391.93C79.805,391.98 80.005,392.006 80.248,392.006C80.564,392.006 80.796,391.965 80.945,391.883C81.14,391.769 81.238,391.639 81.238,391.49C81.238,391.346 81.166,391.224 81.021,391.127C80.916,391.056 80.558,390.92 79.949,390.717C79.242,390.478 78.754,390.211 78.484,389.914C78.214,389.621 78.08,389.281 78.08,388.894C78.08,388.558 78.183,388.246 78.39,387.957C78.597,387.668 78.915,387.433 79.342,387.254C79.77,387.074 80.302,386.984 80.939,386.984Z" style="fill:rgb(236,75,115);fill-rule:nonzero;"/>
                <path d="M86.37,385.127L87.696,385.127L87.238,387.125L88.932,387.125L88.656,388.262L86.965,388.262L86.364,390.899C86.309,391.159 86.281,391.333 86.281,391.42C86.281,391.538 86.318,391.629 86.392,391.693C86.467,391.757 86.566,391.789 86.692,391.789C86.836,391.789 87.022,391.72 87.249,391.581C87.475,391.442 87.731,391.211 88.017,390.887L88.791,391.56C88.274,392.17 87.826,392.581 87.447,392.794C87.068,393.007 86.663,393.113 86.231,393.113C85.706,393.113 85.277,392.96 84.943,392.653C84.608,392.347 84.441,391.992 84.441,391.59C84.441,391.379 84.481,391.098 84.559,390.747L85.119,388.262L83.828,388.262L84.094,387.283C84.48,387.185 84.802,387.05 85.06,386.878C85.318,386.705 85.565,386.466 85.801,386.161C86.037,385.855 86.227,385.511 86.37,385.127Z" style="fill:rgb(236,75,115);fill-rule:nonzero;"/>
                <path d="M94.504,387.631L94.886,387.125L96.285,387.125L95.308,391.051C95.244,391.32 95.212,391.492 95.212,391.566C95.212,391.637 95.237,391.694 95.287,391.739C95.337,391.784 95.4,391.806 95.477,391.806C95.558,391.806 95.664,391.773 95.797,391.707C95.929,391.64 96.07,391.537 96.22,391.396L96.882,392.17C96.528,392.506 96.183,392.747 95.846,392.893C95.509,393.04 95.165,393.113 94.815,393.113C94.57,393.113 94.347,393.069 94.146,392.981C93.946,392.893 93.777,392.771 93.638,392.615C93.5,392.459 93.404,392.281 93.349,392.082C93.177,392.293 92.971,392.48 92.731,392.644C92.491,392.808 92.258,392.928 92.034,393.002C91.809,393.076 91.56,393.113 91.287,393.113C90.865,393.113 90.495,393.015 90.176,392.82C89.858,392.625 89.608,392.35 89.426,391.997C89.245,391.643 89.154,391.221 89.154,390.728C89.154,389.713 89.518,388.835 90.246,388.095C90.975,387.354 91.809,386.984 92.75,386.984C93.092,386.984 93.395,387.032 93.659,387.127C93.923,387.222 94.204,387.39 94.504,387.631ZM93.983,388.602C93.768,388.438 93.587,388.326 93.438,388.268C93.29,388.209 93.137,388.18 92.981,388.18C92.469,388.18 92.042,388.455 91.7,389.007C91.358,389.559 91.187,390.155 91.187,390.797C91.187,391.067 91.256,391.287 91.392,391.457C91.529,391.628 91.693,391.713 91.885,391.713C92.1,391.713 92.311,391.636 92.518,391.484C92.803,391.269 93.078,390.914 93.341,390.421C93.605,389.928 93.819,389.322 93.983,388.602Z" style="fill:rgb(236,75,115);fill-rule:nonzero;"/>
            </g>
        </g>
    </g>
</svg>
