<?xml version="1.0" encoding="UTF-8" standalone="no"?>
<!DOCTYPE svg PUBLIC "-//W3C//DTD SVG 1.1//EN" "http://www.w3.org/Graphics/SVG/1.1/DTD/svg11.dtd">
<svg width="100%" height="100%" viewBox="0 0 129 129" version="1.1" xmlns="http://www.w3.org/2000/svg" xmlns:xlink="http://www.w3.org/1999/xlink" xml:space="preserve" xmlns:serif="http://www.serif.com/" style="fill-rule:evenodd;clip-rule:evenodd;stroke-linejoin:round;stroke-miterlimit:2;">
    <g transform="matrix(1,0,0,1,-935,-168)">
        <g id="burger" transform="matrix(0.49549,0,0,0.49549,-2533.39,-183.715)">
            <rect x="7001.13" y="711.713" width="258.33" height="258.33" style="fill:none;"/>
            <clipPath id="_clip1">
                <rect x="7001.13" y="711.713" width="258.33" height="258.33"/>
            </clipPath>
            <g clip-path="url(#_clip1)">
                <g transform="matrix(2.0182,0,0,2.0182,5112.9,370.774)">
                    <rect x="949.008" y="183.216" width="94.183" height="88.821" style="fill:white;"/>
                </g>
                <g transform="matrix(1.00847,0,0,1.00847,-3537.74,-5.31202)">
                    <path d="M10706.7,754.635C10706.7,743.062 10702.1,731.963 10693.9,723.78C10685.7,715.597 10674.6,711 10663,711C10615.7,711 10540.7,711 10493.4,711C10481.8,711 10470.7,715.597 10462.5,723.78C10454.4,731.963 10449.8,743.062 10449.8,754.635L10449.8,923.365C10449.8,934.938 10454.4,946.037 10462.5,954.22C10470.7,962.403 10481.8,967 10493.4,967C10540.7,967 10615.7,967 10663,967C10674.6,967 10685.7,962.403 10693.9,954.22C10702.1,946.037 10706.7,934.938 10706.7,923.365L10706.7,754.635ZM10658.2,894.706C10658.2,887.142 10652.1,881.001 10644.5,881.001L10511.9,881.001C10504.4,881.001 10498.2,887.142 10498.2,894.706C10498.2,902.27 10504.4,908.411 10511.9,908.411L10644.5,908.411C10652.1,908.411 10658.2,902.27 10658.2,894.706ZM10658.2,839C10658.2,831.436 10652.1,825.295 10644.5,825.295L10511.9,825.295C10504.4,825.295 10498.2,831.436 10498.2,839C10498.2,846.564 10504.4,852.705 10511.9,852.705L10644.5,852.705C10652.1,852.705 10658.2,846.564 10658.2,839ZM10658.2,783.294C10658.2,775.73 10652.1,769.589 10644.5,769.589L10511.9,769.589C10504.4,769.589 10498.2,775.73 10498.2,783.294C10498.2,790.858 10504.4,796.999 10511.9,796.999L10644.5,796.999C10652.1,796.999 10658.2,790.858 10658.2,783.294Z"/>
                </g>
            </g>
        </g>
    </g>
</svg>
